<svg xmlns="http://www.w3.org/2000/svg" xmlns:xlink="http://www.w3.org/1999/xlink" width="432" zoomAndPan="magnify" viewBox="0 0 324 323.999988" height="432" preserveAspectRatio="xMidYMid meet" version="1.0"><defs><g/><clipPath id="0e589b5741"><rect x="0" width="156" y="0" height="182"/></clipPath><clipPath id="1c7c03484b"><path d="M 230.40625 101.378906 L 243.15625 101.378906 L 243.15625 114 L 230.40625 114 Z M 230.40625 101.378906 " clip-rule="nonzero"/></clipPath></defs><g transform="matrix(1, 0, 0, 1, 84, 94)"><g clip-path="url(#0e589b5741)"><g fill="#ffffff" fill-opacity="1"><g transform="translate(0.274015, 69.571435)"><g><path d="M 55.6875 -49.03125 L 55.6875 0 L 52.59375 0 L 52.59375 -41.78125 C 52.59375 -42.382812 52.628906 -43.019531 52.703125 -43.6875 L 33.40625 -9.421875 C 33.082031 -8.828125 32.617188 -8.53125 32.015625 -8.53125 L 31.453125 -8.53125 C 30.859375 -8.53125 30.398438 -8.828125 30.078125 -9.421875 L 10.25 -43.765625 C 10.320312 -43.066406 10.359375 -42.40625 10.359375 -41.78125 L 10.359375 0 L 7.234375 0 L 7.234375 -49.03125 L 9.703125 -49.03125 C 10.023438 -49.03125 10.273438 -48.992188 10.453125 -48.921875 C 10.640625 -48.847656 10.828125 -48.664062 11.015625 -48.375 L 30.796875 -14.28125 C 31.148438 -13.632812 31.453125 -12.941406 31.703125 -12.203125 C 31.835938 -12.566406 31.984375 -12.925781 32.140625 -13.28125 C 32.304688 -13.644531 32.484375 -13.988281 32.671875 -14.3125 L 51.90625 -48.375 C 52.09375 -48.664062 52.28125 -48.847656 52.46875 -48.921875 C 52.664062 -48.992188 52.925781 -49.03125 53.25 -49.03125 Z M 55.6875 -49.03125 "/></g></g></g><g fill="#ffffff" fill-opacity="1"><g transform="translate(63.197549, 69.571435)"><g><path d="M 45.078125 -49.03125 L 45.078125 0 L 43.421875 0 C 43.117188 0 42.867188 -0.0507812 42.671875 -0.15625 C 42.472656 -0.257812 42.28125 -0.4375 42.09375 -0.6875 L 10.25 -43.234375 C 10.320312 -42.546875 10.359375 -41.890625 10.359375 -41.265625 L 10.359375 0 L 7.234375 0 L 7.234375 -49.03125 L 9.015625 -49.03125 C 9.335938 -49.03125 9.582031 -48.988281 9.75 -48.90625 C 9.925781 -48.820312 10.117188 -48.644531 10.328125 -48.375 L 42.09375 -5.921875 C 42.03125 -6.617188 42 -7.28125 42 -7.90625 L 42 -49.03125 Z M 45.078125 -49.03125 "/></g></g></g><g fill="#ffffff" fill-opacity="1"><g transform="translate(115.518326, 69.571435)"><g><path d="M 20.09375 -2.078125 C 21.96875 -2.078125 23.671875 -2.335938 25.203125 -2.859375 C 26.742188 -3.378906 28.066406 -4.117188 29.171875 -5.078125 C 30.285156 -6.035156 31.140625 -7.179688 31.734375 -8.515625 C 32.335938 -9.859375 32.640625 -11.351562 32.640625 -13 C 32.640625 -15.144531 32.242188 -16.929688 31.453125 -18.359375 C 30.671875 -19.796875 29.664062 -20.941406 28.4375 -21.796875 C 27.21875 -22.648438 25.867188 -23.253906 24.390625 -23.609375 C 22.910156 -23.972656 21.476562 -24.15625 20.09375 -24.15625 C 18.707031 -24.15625 17.273438 -23.972656 15.796875 -23.609375 C 14.316406 -23.253906 12.960938 -22.648438 11.734375 -21.796875 C 10.515625 -20.941406 9.507812 -19.796875 8.71875 -18.359375 C 7.9375 -16.929688 7.546875 -15.144531 7.546875 -13 C 7.546875 -11.351562 7.847656 -9.859375 8.453125 -8.515625 C 9.054688 -7.179688 9.90625 -6.035156 11 -5.078125 C 12.09375 -4.117188 13.414062 -3.378906 14.96875 -2.859375 C 16.519531 -2.335938 18.226562 -2.078125 20.09375 -2.078125 Z M 9.140625 -37.046875 C 9.140625 -35.722656 9.351562 -34.445312 9.78125 -33.21875 C 10.207031 -32 10.867188 -30.910156 11.765625 -29.953125 C 12.671875 -28.992188 13.8125 -28.226562 15.1875 -27.65625 C 16.5625 -27.09375 18.195312 -26.8125 20.09375 -26.8125 C 21.96875 -26.8125 23.59375 -27.09375 24.96875 -27.65625 C 26.34375 -28.226562 27.476562 -28.992188 28.375 -29.953125 C 29.28125 -30.910156 29.945312 -32 30.375 -33.21875 C 30.800781 -34.445312 31.015625 -35.722656 31.015625 -37.046875 C 31.015625 -38.453125 30.769531 -39.757812 30.28125 -40.96875 C 29.800781 -42.1875 29.09375 -43.242188 28.15625 -44.140625 C 27.21875 -45.046875 26.070312 -45.75 24.71875 -46.25 C 23.363281 -46.757812 21.820312 -47.015625 20.09375 -47.015625 C 18.363281 -47.015625 16.816406 -46.757812 15.453125 -46.25 C 14.085938 -45.75 12.9375 -45.046875 12 -44.140625 C 11.070312 -43.242188 10.363281 -42.1875 9.875 -40.96875 C 9.382812 -39.757812 9.140625 -38.453125 9.140625 -37.046875 Z M 25.328125 -25.609375 C 26.898438 -25.253906 28.335938 -24.726562 29.640625 -24.03125 C 30.941406 -23.34375 32.066406 -22.476562 33.015625 -21.4375 C 33.960938 -20.40625 34.703125 -19.179688 35.234375 -17.765625 C 35.765625 -16.359375 36.03125 -14.753906 36.03125 -12.953125 C 36.03125 -10.878906 35.632812 -9.007812 34.84375 -7.34375 C 34.0625 -5.675781 32.972656 -4.253906 31.578125 -3.078125 C 30.179688 -1.898438 28.503906 -1 26.546875 -0.375 C 24.597656 0.238281 22.445312 0.546875 20.09375 0.546875 C 17.738281 0.546875 15.582031 0.238281 13.625 -0.375 C 11.675781 -1 10.003906 -1.898438 8.609375 -3.078125 C 7.210938 -4.253906 6.117188 -5.675781 5.328125 -7.34375 C 4.546875 -9.007812 4.15625 -10.878906 4.15625 -12.953125 C 4.15625 -14.753906 4.421875 -16.359375 4.953125 -17.765625 C 5.484375 -19.179688 6.21875 -20.40625 7.15625 -21.4375 C 8.09375 -22.476562 9.210938 -23.34375 10.515625 -24.03125 C 11.816406 -24.726562 13.253906 -25.253906 14.828125 -25.609375 C 13.398438 -26.023438 12.128906 -26.585938 11.015625 -27.296875 C 9.910156 -28.015625 8.984375 -28.867188 8.234375 -29.859375 C 7.484375 -30.859375 6.910156 -31.960938 6.515625 -33.171875 C 6.117188 -34.390625 5.921875 -35.691406 5.921875 -37.078125 C 5.921875 -38.804688 6.25 -40.429688 6.90625 -41.953125 C 7.570312 -43.484375 8.515625 -44.8125 9.734375 -45.9375 C 10.960938 -47.070312 12.445312 -47.960938 14.1875 -48.609375 C 15.925781 -49.253906 17.894531 -49.578125 20.09375 -49.578125 C 22.269531 -49.578125 24.226562 -49.253906 25.96875 -48.609375 C 27.707031 -47.960938 29.195312 -47.070312 30.4375 -45.9375 C 31.675781 -44.8125 32.625 -43.484375 33.28125 -41.953125 C 33.9375 -40.429688 34.265625 -38.804688 34.265625 -37.078125 C 34.265625 -35.691406 34.066406 -34.390625 33.671875 -33.171875 C 33.285156 -31.960938 32.707031 -30.863281 31.9375 -29.875 C 31.175781 -28.894531 30.238281 -28.039062 29.125 -27.3125 C 28.019531 -26.59375 26.753906 -26.023438 25.328125 -25.609375 Z M 25.328125 -25.609375 "/></g></g></g><g fill="#ffffff" fill-opacity="1"><g transform="translate(68.588142, 166.44091)"><g/></g></g></g></g><path fill="#ffffff" d="M 236.808594 107.691406 C 237.53125 107.691406 238.003906 107.300781 238.003906 106.578125 C 238.003906 105.851562 237.53125 105.503906 236.789062 105.503906 L 235.636719 105.503906 L 235.636719 107.691406 Z M 234.609375 104.566406 L 236.851562 104.566406 C 238.191406 104.566406 239.050781 105.28125 239.050781 106.558594 C 239.050781 107.523438 238.515625 108.132812 237.753906 108.398438 L 239.21875 110.820312 L 238.023438 110.820312 L 236.703125 108.613281 C 236.691406 108.605469 236.371094 108.613281 236.363281 108.613281 L 235.636719 108.613281 L 235.636719 110.820312 L 234.609375 110.820312 L 234.609375 104.566406 " fill-opacity="1" fill-rule="nonzero"/><g clip-path="url(#1c7c03484b)"><path fill="#ffffff" d="M 236.714844 102.460938 C 236.007812 102.460938 235.324219 102.601562 234.679688 102.875 C 234.058594 103.136719 233.5 103.511719 233.019531 103.992188 C 232.539062 104.472656 232.160156 105.03125 231.898438 105.65625 C 231.625 106.300781 231.488281 106.984375 231.488281 107.691406 C 231.488281 108.394531 231.625 109.078125 231.898438 109.722656 C 232.160156 110.347656 232.539062 110.90625 233.019531 111.386719 C 233.5 111.867188 234.058594 112.242188 234.679688 112.507812 C 235.324219 112.777344 236.007812 112.917969 236.714844 112.917969 C 237.421875 112.917969 238.105469 112.777344 238.75 112.507812 C 239.371094 112.242188 239.929688 111.867188 240.410156 111.386719 C 240.890625 110.90625 241.269531 110.347656 241.53125 109.722656 C 241.804688 109.078125 241.941406 108.394531 241.941406 107.691406 C 241.941406 106.984375 241.804688 106.300781 241.53125 105.65625 C 241.269531 105.03125 240.890625 104.472656 240.410156 103.992188 C 239.929688 103.511719 239.371094 103.136719 238.75 102.875 C 238.105469 102.601562 237.421875 102.460938 236.714844 102.460938 Z M 236.714844 114 C 235.863281 114 235.035156 113.832031 234.257812 113.503906 C 233.507812 113.1875 232.832031 112.730469 232.253906 112.152344 C 231.671875 111.574219 231.21875 110.898438 230.902344 110.144531 C 230.570312 109.367188 230.40625 108.542969 230.40625 107.691406 C 230.40625 106.839844 230.570312 106.011719 230.902344 105.234375 C 231.21875 104.480469 231.671875 103.808594 232.253906 103.226562 C 232.832031 102.648438 233.507812 102.195312 234.257812 101.875 C 235.035156 101.546875 235.863281 101.378906 236.714844 101.378906 C 237.566406 101.378906 238.394531 101.546875 239.171875 101.875 C 239.921875 102.195312 240.597656 102.648438 241.175781 103.226562 C 241.757812 103.808594 242.210938 104.480469 242.527344 105.234375 C 242.859375 106.011719 243.023438 106.839844 243.023438 107.691406 C 243.023438 108.542969 242.859375 109.367188 242.527344 110.144531 C 242.210938 110.898438 241.757812 111.574219 241.175781 112.152344 C 240.597656 112.730469 239.921875 113.1875 239.171875 113.503906 C 238.394531 113.832031 237.566406 114 236.714844 114 " fill-opacity="1" fill-rule="nonzero"/></g></svg>